<?xml version="1.0" standalone="no"?>
<!DOCTYPE svg PUBLIC "-//W3C//DTD SVG 20010904//EN"
 "http://www.w3.org/TR/2001/REC-SVG-20010904/DTD/svg10.dtd">
<svg version="1.0" xmlns="http://www.w3.org/2000/svg"
 width="123.000000pt" height="141.000000pt" viewBox="0 0 123.000000 141.000000"
 preserveAspectRatio="xMidYMid meet">
<metadata>
Created by potrace 1.16, written by Peter Selinger 2001-2019
</metadata>
<g transform="translate(0.000000,141.000000) scale(0.100000,-0.100000)"
fill="#000000" stroke="none">
<path d="M772 1143 c-27 -4 -33 -8 -30 -26 2 -13 11 -23 23 -25 58 -8 63 -12
70 -49 4 -21 10 -40 14 -43 5 -3 11 -17 14 -31 5 -19 -1 -36 -24 -67 -29 -40
-34 -42 -80 -42 l-50 0 3 -42 c3 -36 7 -44 27 -46 44 -7 70 8 113 63 32 41 44
51 47 38 3 -18 26 -56 51 -85 19 -23 68 -23 120 -1 26 12 40 24 40 36 0 17 -5
18 -42 13 -53 -7 -60 -3 -88 54 -12 25 -26 53 -31 62 -9 19 2 46 38 92 19 24
28 27 56 22 25 -5 36 -2 50 14 21 25 21 26 -2 51 -14 15 -29 19 -64 17 -25 -2
-43 -7 -40 -12 4 -5 -1 -14 -9 -20 -9 -6 -25 -26 -36 -45 -12 -19 -23 -28 -26
-22 -4 6 -5 11 -2 11 3 0 -5 19 -17 43 -24 45 -42 51 -125 40z"/>
<path d="M390 941 c0 -4 -23 -11 -52 -14 -28 -4 -55 -12 -59 -18 -4 -7 -15 -9
-25 -5 -10 4 -16 5 -13 1 3 -3 -15 -27 -40 -54 -59 -62 -67 -72 -76 -102 -4
-13 -13 -27 -19 -31 -7 -5 -11 -56 -11 -150 0 -120 3 -147 18 -168 9 -13 17
-31 17 -38 0 -18 107 -122 125 -122 7 0 15 -5 17 -11 2 -6 32 -13 66 -16 34
-3 62 -10 62 -14 0 -5 7 -9 15 -9 8 0 15 4 15 9 0 4 26 11 58 14 31 3 71 12
87 21 17 9 36 16 43 16 6 0 12 3 12 8 0 4 18 18 39 31 35 22 40 29 43 71 3 43
1 46 -17 42 -11 -3 -27 -10 -35 -16 -29 -22 -78 -46 -93 -46 -9 0 -17 -5 -19
-11 -2 -6 -33 -11 -74 -12 -128 -2 -204 58 -224 176 -5 29 -11 60 -15 70 -7
16 8 17 234 17 l241 0 0 74 c0 41 -4 77 -9 80 -4 3 -11 19 -14 36 -4 17 -12
38 -19 46 -33 42 -80 84 -92 84 -8 0 -16 5 -18 10 -2 6 -27 13 -56 17 -28 3
-52 10 -52 14 0 5 -13 9 -30 9 -16 0 -30 -4 -30 -9z m60 -91 c0 -5 9 -10 19
-10 21 0 61 -44 61 -66 0 -8 5 -14 11 -14 6 0 9 -18 7 -46 l-3 -45 -149 -2
-148 -2 6 45 c8 55 50 111 94 125 18 5 32 13 32 17 0 4 16 8 35 8 19 0 35 -4
35 -10z"/>
</g>
</svg>
